<svg width="233" height="146" viewBox="0 0 233 146" fill="none" xmlns="http://www.w3.org/2000/svg">
<path d="M17.3346 88.7234C15.306 88.7234 12.7778 88.3063 11.2427 87.989C9.7075 87.6717 8.58659 87.0019 7.43522 85.7857C5.5 83 6.16807 73.8885 6.16807 71.3503C6.16807 70.2821 7.26461 63.0483 9.4577 57.073C11.7056 51.0977 14.6389 45.0961 18.2575 39.0679C15.5161 39.2265 13.3504 39.6231 11.7605 40.2577C10.1705 40.8922 9.12874 41.8705 8.6353 43.1924C8.85461 43.1924 9.07391 43.4568 9.29322 43.9856C9.56736 44.5144 9.70443 45.0696 9.70443 45.6513C9.70443 46.6031 9.26581 47.3699 8.38857 47.9515C7.51134 48.4803 6.41479 48.7447 5.09894 48.7447C3.56377 48.7447 2.33016 48.3481 1.39809 47.5549C0.466031 46.7618 0 45.6249 0 44.1442C0 42.3464 0.712754 40.7071 2.13826 39.2265C3.6186 37.7459 5.64721 36.5826 8.22409 35.7365C10.801 34.8376 13.652 34.3881 16.7771 34.3881C17.9285 34.3881 19.354 34.4674 21.0537 34.6261C25.5495 27.7518 30.2921 22.1467 35.2813 17.8106C40.3255 13.4217 45.1228 11.2272 49.6735 11.2272C52.3052 11.2272 54.4709 11.5973 56.1705 12.3376L43.2587 70.7157H31.416L37.7486 41.9233C35.72 41.0244 33.8558 40.3634 32.1562 39.9404C30.4565 39.5174 28.6473 39.2265 26.7283 39.0679C23.6031 45.572 21.0263 52.2346 18.9977 59.056C17.0239 65.8245 16.037 71.2445 16.037 75.3162C16.037 77.3256 16.567 87.7716 17.3346 88.7234ZM43.2587 16.8588C40.9011 18.075 38.4339 20.3488 35.857 23.6801C33.335 26.9586 30.8678 30.951 28.4554 35.6572C32.4029 36.3975 35.7474 37.3229 38.4887 38.4333L43.2587 16.8588Z" fill="#78A516"/>
<path d="M66.4373 70.7157C63.8056 70.7157 61.6673 69.9226 60.0225 68.3362C58.4325 66.7498 57.6375 64.3703 57.6375 61.1976C57.6375 59.8756 57.8568 58.1571 58.2955 56.0419L67.0952 16.3035L79.2669 14.7172L69.8092 57.549C69.5899 58.3422 69.4802 59.1882 69.4802 60.0871C69.4802 61.1447 69.727 61.9114 70.2204 62.3873C70.7687 62.8104 71.6459 63.0219 72.8521 63.0219C74.4421 63.0219 75.9224 62.3873 77.2931 61.1182C78.6638 59.7963 79.6507 58.1042 80.2538 56.0419H83.7079C81.6793 61.7528 79.075 65.6394 75.895 67.7017C72.715 69.711 69.5625 70.7157 66.4373 70.7157Z" fill="#78A516"/>
<path d="M88.9008 70.5732C86.2691 70.5732 84.1309 69.78 82.4861 68.1937C80.8961 66.5544 80.1011 64.122 80.1011 60.8964C80.1011 59.5744 80.3204 57.8559 80.759 55.7408L89.5588 16.0024L101.73 14.416L92.2727 57.2478C92.0534 58.041 91.9437 58.8077 91.9437 59.548C91.9437 61.6631 93.0677 62.7207 95.3157 62.7207C96.3025 62.7207 97.1798 62.5621 97.9473 62.2448C97.728 64.8887 96.7411 66.951 94.9867 68.4316C93.287 69.8594 91.2584 70.5732 88.9008 70.5732Z" fill="#78A516"/>
<path d="M144.493 7.62776H143.507C138.627 7.62776 134.816 8.81753 132.075 11.1971C129.389 13.5237 128.045 17.6747 128.045 23.65C128.045 25.6065 128.237 26.9814 128.621 27.7746C129.005 28.5149 129.197 28.9379 129.197 29.0437C126.236 29.0437 124.016 28.462 122.535 27.2987C121.11 26.0825 120.397 24.0995 120.397 21.3498C120.397 17.5954 121.356 14.1847 123.275 11.1178C125.194 7.99791 128.237 5.48617 132.404 3.58254C136.626 1.67891 141.971 0.727089 148.441 0.727089C152.06 0.727089 155.952 1.04436 160.119 1.6789C163.628 2.26057 166.753 2.55141 169.494 2.55141C173.003 2.55141 176.183 1.99618 179.034 0.885723C178.925 4.32284 178.02 6.86102 176.32 8.50026C174.621 10.1395 172.099 10.9591 168.754 10.9591C167 10.9591 165.245 10.8269 163.491 10.5625C161.736 10.2981 159.242 9.84867 156.007 9.21413L143.375 70.7158H131.138L144.493 7.62776Z" fill="#78A516"/>
<path d="M165.169 71.5732C161.111 71.5732 157.904 70.5685 155.546 68.5591C153.189 66.5497 152.01 63.377 152.01 59.041C152.01 55.4452 152.778 51.4529 154.313 47.064C155.848 42.675 158.315 38.8942 161.714 35.7215C165.114 32.4959 169.39 30.8831 174.544 30.8831C181.562 30.8831 185.071 35.1134 185.071 43.574V43.6533C185.235 43.7062 185.537 43.7326 185.976 43.7326C187.785 43.7326 189.868 43.2831 192.226 42.3842C194.583 41.4324 196.722 40.2955 198.641 38.9735L199.381 41.1151C197.791 42.7544 195.707 44.1556 193.13 45.319C190.608 46.4294 187.84 47.2226 184.824 47.6985C184.386 52.5105 183.262 56.7143 181.452 60.31C179.643 63.9058 177.313 66.6819 174.462 68.6385C171.611 70.595 168.513 71.5732 165.169 71.5732ZM168.458 64.4346C169.774 64.4346 171.09 63.7207 172.406 62.293C173.722 60.8124 174.873 58.8295 175.86 56.3442C176.847 53.806 177.56 51.0034 177.998 47.9365C176.518 47.6192 175.778 46.5088 175.778 44.6051C175.778 42.4371 176.628 41.0094 178.327 40.3219C178.218 38.5769 177.943 37.3872 177.505 36.7526C177.066 36.0652 176.299 35.7215 175.202 35.7215C173.393 35.7215 171.638 36.9906 169.939 39.5288C168.239 42.0669 166.868 45.1075 165.827 48.6503C164.785 52.1932 164.264 55.313 164.264 58.0098C164.264 60.548 164.565 62.2666 165.169 63.1655C165.772 64.0116 166.868 64.4346 168.458 64.4346Z" fill="#78A516"/>
<path d="M198.95 28.5035H210.793L209.477 34.4524C212.218 32.1786 215.426 31.0417 219.099 31.0417C222.169 31.0417 224.609 32.02 226.418 33.9765C228.228 35.933 229.132 39.1322 229.132 43.574C229.132 47.7514 228.502 51.9817 227.241 56.2648C225.98 60.4951 223.842 64.1173 220.826 67.1314C217.811 70.0926 213.836 71.5732 208.901 71.5732C205.392 71.5732 203.062 70.6214 201.911 68.7178L197.634 88.0714L185.216 90.9268L198.95 28.5035ZM206.352 64.6725C208.983 64.6725 211.149 63.4828 212.849 61.1032C214.603 58.7237 215.864 55.8947 216.632 52.6162C217.454 49.2849 217.865 46.1915 217.865 43.336C217.865 38.9471 216.495 36.7526 213.753 36.7526C212.766 36.7526 211.752 37.0963 210.71 37.7837C209.723 38.4712 208.846 39.423 208.079 40.6392L203.226 62.8482C203.665 64.0644 204.707 64.6725 206.352 64.6725Z" fill="#78A516"/>
<path d="M32.5637 92.1961C29.1096 92.3019 26.4505 93.5709 24.5864 96.0034C22.7771 98.4358 21.8724 102.64 21.8724 108.615C21.8724 110.571 22.0643 111.946 22.4481 112.74C22.8319 113.48 23.0238 113.903 23.0238 114.009C20.0631 114.009 17.8426 113.427 16.3623 112.264C14.9368 111.047 14.224 109.064 14.224 106.315C14.224 102.56 15.1835 99.1496 17.1024 96.0827C19.0214 92.9628 22.0643 90.4511 26.2312 88.5475C30.4529 86.6439 35.7985 85.692 42.2682 85.692C43.584 85.692 45.3385 85.8242 47.5316 86.0886C51.4791 86.4588 54.2753 86.6438 55.9201 86.6438C58.826 86.6438 61.2932 86.3266 63.3218 85.692C63.1573 86.1679 62.8558 87.2255 62.4172 88.8647C61.9785 90.4511 61.1835 91.826 60.0322 92.9893C58.9356 94.0997 57.4279 94.8401 55.5089 95.2102C52.2741 95.2102 48.4362 94.7079 43.9952 93.7032L40.5411 109.487H52.5483L51.2324 115.357H39.2252L32.5637 145.181H20.721L32.5637 92.1961Z" fill="#78A516"/>
<path d="M65.7068 145.921C61.6496 145.921 58.4422 144.916 56.0846 142.907C53.7271 140.897 52.5483 137.724 52.5483 133.388C52.5483 129.793 53.3158 125.8 54.851 121.411C56.3862 117.022 58.8534 113.242 62.2527 110.069C65.652 106.843 69.9285 105.23 75.0823 105.23C82.1002 105.23 85.6091 109.461 85.6091 117.921V118.001C85.7736 118.054 86.0751 118.08 86.5138 118.08C88.3231 118.08 90.4065 117.631 92.7641 116.732C95.1216 115.78 97.2599 114.643 99.1788 113.321L99.919 115.463C98.329 117.102 96.2456 118.503 93.6687 119.666C91.1467 120.777 88.3779 121.57 85.3624 122.046C84.9238 126.858 83.7998 131.062 81.9905 134.658C80.1812 138.253 77.8511 141.029 75 142.986C72.149 144.942 69.0513 145.921 65.7068 145.921ZM68.9965 138.782C70.3123 138.782 71.6282 138.068 72.944 136.64C74.2599 135.16 75.4113 133.177 76.3981 130.692C77.385 128.153 78.0978 125.351 78.5364 122.284C77.0561 121.967 76.3159 120.856 76.3159 118.952C76.3159 116.784 77.1657 115.357 78.8654 114.669C78.7557 112.924 78.4816 111.735 78.043 111.1C77.6044 110.413 76.8367 110.069 75.7402 110.069C73.9309 110.069 72.1765 111.338 70.4768 113.876C68.7772 116.414 67.4065 119.455 66.3648 122.998C65.323 126.541 64.8022 129.66 64.8022 132.357C64.8022 134.895 65.1037 136.614 65.7068 137.513C66.3099 138.359 67.4065 138.782 68.9965 138.782Z" fill="#78A516"/>
<path d="M105.923 145.181C101.865 145.181 98.658 144.176 96.3004 142.167C93.9428 140.157 92.7641 136.984 92.7641 132.648C92.7641 129.053 93.5316 125.06 95.0668 120.671C96.602 116.282 99.0692 112.502 102.468 109.329C105.868 106.103 110.144 104.49 115.298 104.49C122.316 104.49 125.825 108.721 125.825 117.181V117.261C125.989 117.313 126.291 117.34 126.729 117.34C128.539 117.34 130.622 116.89 132.979 115.992C135.337 115.04 137.475 113.903 139.394 112.581L140.134 114.722C138.544 116.362 136.461 117.763 133.884 118.926C131.362 120.037 128.594 120.83 125.578 121.306C125.14 126.118 124.016 130.322 122.206 133.917C120.397 137.513 118.067 140.289 115.216 142.246C112.365 144.202 109.267 145.181 105.923 145.181ZM109.212 138.042C110.528 138.042 111.844 137.328 113.16 135.9C114.476 134.42 115.627 132.437 116.614 129.952C117.601 127.413 118.314 124.611 118.752 121.544C117.272 121.226 116.532 120.116 116.532 118.212C116.532 116.044 117.381 114.617 119.081 113.929C118.971 112.184 118.697 110.994 118.259 110.36C117.82 109.672 117.052 109.329 115.956 109.329C114.147 109.329 112.392 110.598 110.693 113.136C108.993 115.674 107.622 118.715 106.581 122.258C105.539 125.801 105.018 128.92 105.018 131.617C105.018 134.155 105.32 135.874 105.923 136.773C106.526 137.619 107.622 138.042 109.212 138.042Z" fill="#78A516"/>
<path d="M142.552 145.181C139.427 145.181 136.823 144.15 134.74 142.087C132.656 140.025 131.614 136.799 131.614 132.41C131.614 128.497 132.409 124.399 133.999 120.116C135.644 115.78 138.057 112.131 141.237 109.17C144.471 106.156 148.309 104.649 152.75 104.649C154.998 104.649 156.67 105.019 157.767 105.76C158.864 106.5 159.412 107.478 159.412 108.694V109.012L163.442 90.7684L175.613 89.1821L166.156 132.014C165.936 132.807 165.827 133.574 165.827 134.314C165.827 136.429 166.951 137.487 169.198 137.487C170.185 137.487 171.063 137.328 171.83 137.011C171.611 139.655 170.624 141.691 168.87 143.118C167.17 144.493 165.141 145.181 162.784 145.181C160.591 145.181 158.726 144.652 157.191 143.594C155.711 142.484 154.724 140.818 154.231 138.597C150.941 142.986 147.048 145.181 142.552 145.181ZM147.898 137.487C149.104 137.487 150.31 136.984 151.517 135.98C152.778 134.975 153.71 133.574 154.313 131.776L154.642 130.507L158.672 112.343C158.178 110.492 157.054 109.567 155.3 109.567C153.107 109.567 151.133 110.809 149.378 113.295C147.624 115.727 146.253 118.688 145.266 122.178C144.279 125.615 143.786 128.656 143.786 131.3C143.786 133.944 144.17 135.636 144.937 136.376C145.76 137.117 146.747 137.487 147.898 137.487Z" fill="#78A516"/>
</svg>
